<svg id="svg" version="1.1" xmlns="http://www.w3.org/2000/svg" xmlns:xlink="http://www.w3.org/1999/xlink" width="400" height="400" viewBox="0, 0, 400,400"><g id="svgg"><path id="path0" d="M214.890 44.025 C 213.741 45.139,212.800 46.309,212.800 46.625 C 212.800 46.941,212.620 47.200,212.400 47.200 C 212.180 47.200,212.000 47.560,212.000 48.000 C 212.000 48.440,211.820 48.800,211.600 48.800 C 211.375 48.800,211.200 49.925,211.200 51.376 C 211.200 52.793,211.380 54.064,211.600 54.200 C 211.821 54.337,212.000 56.137,212.000 58.224 C 212.000 60.475,211.838 62.000,211.600 62.000 C 211.380 62.000,211.200 62.275,211.200 62.611 C 211.200 63.637,208.744 65.996,205.941 67.662 C 201.274 70.436,196.400 75.947,196.400 78.451 C 196.400 78.869,196.239 79.523,196.042 79.905 C 195.845 80.287,195.081 81.860,194.344 83.400 C 193.607 84.940,192.868 86.260,192.702 86.333 C 192.536 86.407,192.400 86.683,192.400 86.947 C 192.400 87.641,188.379 92.000,187.739 92.000 C 187.443 92.000,187.200 92.180,187.200 92.400 C 187.200 92.620,187.010 92.800,186.778 92.800 C 183.835 92.800,172.000 105.463,172.000 108.612 C 172.000 108.935,171.820 109.200,171.600 109.200 C 171.380 109.200,171.200 109.639,171.200 110.176 C 171.200 110.713,171.020 111.264,170.800 111.400 C 170.580 111.536,170.400 113.156,170.400 115.000 C 170.400 116.844,170.580 118.464,170.800 118.600 C 171.020 118.736,171.200 119.178,171.200 119.583 C 171.200 122.434,180.781 134.800,182.991 134.800 C 183.091 134.800,184.006 135.329,185.025 135.975 C 188.805 138.372,194.134 139.458,198.947 138.812 C 213.307 136.886,219.484 134.544,221.213 130.368 C 221.479 129.726,221.855 129.200,222.049 129.200 C 222.242 129.200,222.400 128.840,222.400 128.400 C 222.400 127.960,222.580 127.600,222.800 127.600 C 223.020 127.600,223.200 127.251,223.200 126.824 C 223.200 126.397,223.359 125.949,223.552 125.830 C 223.746 125.710,224.003 125.204,224.124 124.706 C 224.245 124.208,224.561 123.080,224.825 122.200 C 225.726 119.202,226.688 105.328,226.040 104.680 C 225.798 104.438,225.600 103.933,225.600 103.558 C 225.600 103.183,225.214 102.094,224.743 101.138 C 223.850 99.327,223.603 98.726,222.793 96.400 C 222.250 94.838,221.395 92.789,220.556 91.039 C 219.747 89.349,219.833 88.987,221.600 86.646 C 222.480 85.481,223.200 84.319,223.200 84.064 C 223.200 83.809,223.380 83.600,223.600 83.600 C 223.820 83.600,224.000 83.240,224.000 82.800 C 224.000 82.360,224.180 82.000,224.400 82.000 C 224.620 82.000,224.800 81.651,224.800 81.224 C 224.800 80.797,224.980 80.336,225.200 80.200 C 225.420 80.064,225.600 79.434,225.600 78.800 C 225.600 78.166,225.780 77.536,226.000 77.400 C 226.238 77.253,226.400 74.737,226.400 71.200 C 226.400 67.663,226.238 65.147,226.000 65.000 C 225.780 64.864,225.600 64.281,225.600 63.705 C 225.600 63.128,225.432 62.104,225.227 61.428 C 225.022 60.753,224.641 59.390,224.382 58.400 C 224.122 57.410,223.725 56.150,223.501 55.600 C 222.597 53.384,222.450 52.952,222.211 51.800 C 221.624 48.976,221.489 48.516,220.763 46.904 C 220.343 45.972,220.000 45.114,220.000 44.999 C 220.000 44.360,218.107 42.009,217.590 42.005 C 217.255 42.002,216.040 42.911,214.890 44.025 " stroke="none" fill="#8f8f8f" fill-rule="evenodd"></path><path id="path1" d="M206.000 12.800 C 205.670 13.013,204.853 13.191,204.185 13.194 C 203.516 13.197,202.268 13.557,201.412 13.994 C 200.555 14.431,199.783 14.717,199.696 14.630 C 199.609 14.543,198.557 14.905,197.358 15.436 C 196.158 15.966,194.985 16.400,194.750 16.400 C 194.516 16.400,193.825 16.755,193.217 17.188 C 192.608 17.622,191.980 17.847,191.822 17.688 C 191.663 17.530,191.577 17.580,191.630 17.800 C 191.737 18.240,191.363 19.390,190.738 20.547 C 190.461 21.060,190.470 21.430,190.767 21.727 C 191.005 21.965,191.200 22.556,191.200 23.040 C 191.200 23.524,191.824 24.544,192.588 25.307 C 193.804 26.524,194.515 26.852,197.183 27.428 C 199.815 27.996,200.614 30.715,199.367 34.868 C 199.257 35.235,199.086 35.955,198.989 36.468 C 198.265 40.267,197.891 41.600,197.548 41.600 C 197.331 41.600,197.269 41.788,197.411 42.017 C 197.743 42.555,194.196 49.505,192.951 50.755 C 192.428 51.280,192.000 51.858,192.000 52.041 C 192.000 52.628,189.535 55.200,188.973 55.200 C 188.673 55.200,188.242 55.548,188.014 55.973 C 187.787 56.398,187.196 56.874,186.702 57.031 C 186.208 57.188,185.622 57.555,185.402 57.847 C 184.995 58.384,183.204 59.432,179.200 61.477 C 177.990 62.094,176.940 62.735,176.867 62.900 C 176.793 63.065,176.493 63.200,176.200 63.200 C 175.907 63.200,175.607 63.361,175.533 63.558 C 175.400 63.916,174.601 64.422,170.300 66.874 C 169.035 67.595,168.000 68.323,168.000 68.492 C 168.000 68.662,167.758 68.800,167.462 68.800 C 167.166 68.800,166.598 69.160,166.200 69.600 C 165.802 70.040,165.316 70.400,165.121 70.400 C 164.926 70.400,164.380 70.760,163.908 71.200 C 163.436 71.640,162.813 72.000,162.525 72.000 C 162.236 72.000,162.000 72.159,162.000 72.354 C 162.000 72.549,161.415 73.004,160.700 73.365 C 159.031 74.208,158.032 74.850,157.222 75.600 C 156.865 75.930,155.982 76.650,155.260 77.200 C 153.279 78.709,147.200 84.725,147.200 85.176 C 147.200 85.394,146.840 85.765,146.400 86.000 C 145.960 86.235,145.600 86.677,145.600 86.981 C 145.600 87.285,145.461 87.593,145.292 87.667 C 144.908 87.833,141.780 92.555,141.944 92.721 C 142.010 92.788,141.799 93.247,141.475 93.742 C 138.814 97.802,138.087 108.509,140.142 113.349 C 140.504 114.201,140.800 115.116,140.800 115.383 C 140.800 116.001,143.507 121.605,144.190 122.400 C 144.474 122.730,144.842 123.450,145.009 124.000 C 145.803 126.618,151.677 132.641,153.800 133.014 C 154.680 133.169,156.840 133.978,158.600 134.811 C 161.846 136.348,163.487 136.804,168.705 137.620 C 171.576 138.069,171.636 138.104,173.705 140.495 C 182.298 150.422,185.248 151.635,194.255 148.939 C 199.370 147.409,199.796 147.402,204.866 148.764 C 210.451 150.265,212.741 150.317,216.184 149.021 C 217.614 148.482,219.914 147.924,221.293 147.781 C 228.402 147.044,246.966 137.173,248.416 133.359 C 248.605 132.860,249.379 132.242,250.177 131.954 C 250.960 131.671,251.601 131.250,251.602 131.020 C 251.604 130.789,251.837 130.150,252.120 129.600 C 252.404 129.050,252.862 127.520,253.139 126.200 C 253.416 124.880,253.784 123.340,253.957 122.779 C 254.588 120.728,254.092 112.367,253.211 110.200 C 251.329 105.568,250.650 104.149,249.752 102.973 C 249.176 102.218,248.856 101.600,249.042 101.600 C 249.227 101.600,248.978 101.320,248.489 100.977 C 248.000 100.635,247.600 100.129,247.600 99.853 C 247.600 99.577,247.284 99.002,246.897 98.575 C 245.687 97.242,244.800 95.660,244.800 94.838 C 244.800 94.403,244.640 93.948,244.444 93.827 C 243.901 93.492,242.682 88.104,242.919 87.092 C 243.035 86.601,243.233 85.751,243.361 85.201 C 243.488 84.652,243.774 84.142,243.996 84.068 C 244.218 83.994,244.400 83.588,244.400 83.167 C 244.400 82.745,244.561 82.400,244.758 82.400 C 245.175 82.400,246.570 79.960,248.873 75.200 C 249.778 73.330,250.671 71.740,250.859 71.667 C 251.047 71.593,251.200 71.098,251.200 70.567 C 251.200 70.035,251.341 69.600,251.513 69.600 C 251.685 69.600,251.863 69.105,251.909 68.500 C 251.954 67.895,252.153 67.040,252.350 66.600 C 252.548 66.160,252.942 64.990,253.226 64.000 C 253.511 63.010,253.870 62.020,254.025 61.800 C 254.995 60.417,255.358 46.802,254.511 43.600 C 254.249 42.610,253.920 41.260,253.780 40.600 C 253.640 39.940,253.183 38.637,252.763 37.704 C 252.343 36.772,252.000 35.827,252.000 35.604 C 252.000 35.382,251.820 35.200,251.600 35.200 C 251.380 35.200,251.198 34.975,251.195 34.700 C 251.185 33.654,243.132 24.882,241.200 23.811 C 240.650 23.507,239.637 22.734,238.949 22.095 C 238.260 21.456,236.910 20.539,235.949 20.058 C 234.987 19.576,233.660 18.831,233.000 18.403 C 230.936 17.064,229.600 16.369,229.600 16.636 C 229.600 16.777,229.195 16.631,228.700 16.312 C 228.205 15.993,227.350 15.601,226.800 15.442 C 222.377 14.162,219.475 13.495,217.600 13.328 C 216.390 13.221,215.229 12.968,215.020 12.767 C 214.513 12.278,206.764 12.307,206.000 12.800 M219.930 43.090 C 220.661 44.341,221.596 46.452,222.008 47.782 C 222.419 49.112,223.409 52.266,224.207 54.792 C 225.005 57.317,225.807 60.107,225.988 60.992 C 226.169 61.876,226.606 64.040,226.959 65.800 C 228.477 73.378,227.184 79.848,222.843 86.384 C 220.952 89.230,220.891 89.691,222.059 92.289 C 222.531 93.340,223.054 94.560,223.221 95.000 C 223.388 95.440,224.266 97.695,225.171 100.011 C 229.742 111.708,225.594 130.605,217.400 135.405 C 214.655 137.013,200.442 139.995,195.505 139.998 C 183.513 140.007,169.751 126.504,169.823 114.800 C 169.872 106.931,177.177 96.746,186.164 92.019 C 187.411 91.363,188.649 90.596,188.915 90.313 C 190.858 88.257,193.989 82.973,194.790 80.400 C 196.485 74.955,200.601 69.727,205.315 67.031 C 210.386 64.130,212.127 61.065,211.211 56.651 C 210.424 52.864,210.540 49.185,211.498 47.534 C 213.735 43.677,216.458 40.870,218.000 40.831 C 218.330 40.823,219.198 41.839,219.930 43.090 M160.000 142.654 C 151.757 147.232,150.071 153.170,155.599 158.154 C 163.748 165.502,192.241 168.468,219.800 164.837 C 228.333 163.713,237.617 161.225,242.600 158.727 C 248.086 155.978,250.800 152.888,250.800 149.393 C 250.800 144.063,245.180 142.908,243.019 147.794 C 238.684 157.597,188.553 162.180,166.371 154.801 C 160.360 152.802,159.883 151.721,164.119 149.698 C 167.299 148.179,167.800 147.554,167.800 145.104 C 167.800 141.099,164.605 140.095,160.000 142.654 M277.244 242.158 C 275.832 242.941,275.230 244.328,275.214 246.838 C 275.198 249.452,274.861 249.863,271.534 251.328 C 269.115 252.393,268.400 253.255,268.400 255.104 C 268.400 259.273,275.910 259.053,279.779 254.770 C 284.601 249.433,282.548 239.218,277.244 242.158 " stroke="none" fill="#4b4b4b" fill-rule="evenodd"></path><path id="path2" d="M205.646 12.363 C 205.307 12.578,205.851 12.632,207.046 12.504 C 208.121 12.388,209.075 12.228,209.167 12.147 C 209.529 11.828,206.165 12.035,205.646 12.363 M212.105 12.287 C 212.714 12.379,213.614 12.377,214.105 12.282 C 214.597 12.187,214.100 12.111,213.000 12.114 C 211.900 12.117,211.497 12.195,212.105 12.287 M202.400 13.218 C 201.962 13.515,202.124 13.552,203.000 13.356 C 204.471 13.027,204.790 12.798,203.767 12.806 C 203.345 12.809,202.730 12.995,202.400 13.218 M216.833 12.947 C 216.925 13.028,217.879 13.188,218.954 13.304 C 220.149 13.432,220.693 13.378,220.354 13.163 C 219.835 12.835,216.471 12.628,216.833 12.947 M221.233 13.744 C 221.705 14.150,223.643 14.393,223.410 14.016 C 223.268 13.787,222.683 13.600,222.110 13.600 C 221.536 13.600,221.142 13.665,221.233 13.744 M197.400 14.800 C 197.108 15.273,197.499 15.273,198.600 14.800 C 199.371 14.469,199.369 14.455,198.524 14.428 C 198.042 14.413,197.536 14.580,197.400 14.800 M232.800 18.056 C 239.526 21.674,245.929 26.987,250.087 32.400 C 250.678 33.170,251.171 33.575,251.181 33.300 C 251.192 33.025,251.020 32.800,250.800 32.800 C 250.580 32.800,250.400 32.551,250.400 32.248 C 250.400 30.310,239.049 20.779,233.085 17.709 C 228.448 15.321,228.224 15.594,232.800 18.056 M191.651 17.160 C 191.349 17.351,191.169 17.682,191.251 17.896 C 191.333 18.109,191.746 17.950,192.170 17.542 C 192.960 16.781,192.632 16.539,191.651 17.160 M191.213 24.630 C 191.194 25.266,192.852 26.667,194.000 26.985 C 194.797 27.206,194.717 27.083,193.607 26.380 C 192.841 25.895,191.992 25.207,191.720 24.849 C 191.448 24.492,191.220 24.394,191.213 24.630 M195.297 27.431 C 195.429 27.562,196.203 27.820,197.017 28.004 C 197.832 28.188,198.341 28.196,198.149 28.022 C 197.743 27.655,194.940 27.074,195.297 27.431 M252.800 37.353 C 252.800 37.683,252.980 38.064,253.200 38.200 C 253.420 38.336,253.600 38.177,253.600 37.847 C 253.600 37.517,253.420 37.136,253.200 37.000 C 252.980 36.864,252.800 37.023,252.800 37.353 M195.597 45.407 C 195.364 46.022,194.638 47.316,193.986 48.283 C 192.684 50.212,192.494 50.752,193.374 50.022 C 194.124 49.399,196.521 44.787,196.240 44.506 C 196.120 44.387,195.831 44.792,195.597 45.407 M189.598 53.543 C 187.396 55.792,184.109 58.121,180.106 60.267 C 178.777 60.979,177.378 62.000,177.730 62.000 C 178.101 62.000,184.516 58.354,184.800 57.982 C 184.910 57.838,185.450 57.483,186.000 57.194 C 187.504 56.403,190.253 54.016,191.622 52.312 C 193.496 49.980,192.483 50.596,189.598 53.543 M175.378 62.939 C 173.343 64.081,169.192 66.926,169.343 67.076 C 169.435 67.168,170.856 66.378,172.501 65.321 C 174.146 64.265,175.832 63.186,176.246 62.924 C 177.210 62.314,176.468 62.328,175.378 62.939 M162.000 71.418 C 156.432 75.145,154.444 76.755,150.166 81.000 C 146.201 84.935,142.038 90.171,142.504 90.637 C 142.600 90.733,143.335 89.823,144.138 88.615 C 147.354 83.770,155.717 75.877,160.800 72.888 C 161.790 72.306,162.660 71.688,162.733 71.515 C 162.807 71.342,163.122 71.200,163.433 71.200 C 163.745 71.200,164.000 71.020,164.000 70.800 C 164.000 70.580,164.270 70.400,164.600 70.400 C 164.930 70.400,165.200 70.220,165.200 70.000 C 165.200 69.372,164.777 69.559,162.000 71.418 M248.395 76.810 C 247.427 78.785,246.505 80.400,246.345 80.400 C 246.185 80.400,245.940 80.759,245.801 81.198 C 245.662 81.636,245.334 82.228,245.074 82.513 C 244.324 83.333,243.526 84.859,243.737 85.070 C 243.843 85.176,244.432 84.394,245.046 83.331 C 245.659 82.269,246.283 81.310,246.431 81.200 C 246.834 80.900,250.473 73.540,250.302 73.369 C 250.221 73.287,249.363 74.836,248.395 76.810 M246.349 97.400 C 246.565 97.840,247.034 98.560,247.393 99.000 L 248.044 99.800 247.651 99.000 C 247.435 98.560,246.966 97.840,246.607 97.400 L 245.956 96.600 246.349 97.400 M249.515 102.189 C 250.307 103.392,251.024 104.310,251.106 104.227 C 251.307 104.027,248.674 100.016,248.337 100.007 C 248.192 100.003,248.722 100.985,249.515 102.189 M138.428 109.476 C 138.413 109.958,138.580 110.464,138.800 110.600 C 139.273 110.892,139.273 110.501,138.800 109.400 C 138.469 108.629,138.455 108.631,138.428 109.476 M143.213 122.109 C 143.198 122.459,145.223 125.600,145.463 125.600 C 145.685 125.600,144.582 123.556,143.843 122.600 C 143.503 122.160,143.220 121.939,143.213 122.109 M145.600 126.262 C 145.600 126.453,146.233 127.327,147.007 128.204 C 147.781 129.082,148.301 129.482,148.162 129.094 C 147.864 128.260,145.600 125.758,145.600 126.262 M250.800 131.941 C 249.791 132.592,249.217 133.202,249.206 133.636 C 249.203 133.765,250.655 134.260,252.432 134.736 C 256.795 135.904,264.321 138.881,267.251 140.598 C 268.567 141.369,269.778 142.000,269.942 142.000 C 270.840 142.000,273.603 145.412,273.637 146.562 C 273.765 150.831,273.564 151.484,271.033 155.000 C 270.425 155.844,269.265 226.661,269.835 228.146 C 269.974 228.510,270.563 228.900,271.144 229.015 C 271.725 229.129,272.650 229.357,273.200 229.521 C 274.523 229.916,277.303 229.472,276.300 229.026 C 275.480 228.661,275.182 172.800,276.000 172.800 C 276.517 172.800,276.550 145.515,276.034 144.980 C 275.832 144.771,275.607 144.150,275.534 143.600 C 275.441 142.904,275.113 142.559,274.459 142.467 C 273.941 142.393,272.989 141.732,272.343 140.996 C 270.893 139.344,265.996 136.479,261.600 134.709 C 261.050 134.488,260.287 134.148,259.905 133.953 C 259.523 133.759,258.779 133.600,258.251 133.600 C 257.723 133.600,256.776 133.331,256.146 133.002 C 255.516 132.673,254.370 132.287,253.600 132.144 C 252.830 132.002,252.110 131.752,252.000 131.590 C 251.890 131.428,251.350 131.586,250.800 131.941 M151.324 132.512 C 151.527 133.069,151.323 133.275,150.384 133.463 C 149.723 133.595,149.086 133.860,148.968 134.052 C 148.850 134.243,148.324 134.400,147.800 134.400 C 147.276 134.400,146.736 134.580,146.600 134.800 C 146.464 135.020,145.834 135.200,145.200 135.200 C 144.566 135.200,143.936 135.380,143.800 135.600 C 143.664 135.820,143.276 136.000,142.937 136.000 C 139.018 136.000,127.600 144.451,127.600 147.352 C 127.600 147.661,127.350 148.010,127.044 148.128 C 125.268 148.809,125.200 149.717,125.200 172.638 C 125.200 186.683,125.341 194.440,125.600 194.600 C 125.859 194.760,126.000 203.196,126.000 218.600 C 126.000 234.004,126.141 242.440,126.400 242.600 C 126.660 242.760,126.800 251.471,126.800 267.424 C 126.800 283.541,126.938 292.000,127.200 292.000 C 127.462 292.000,127.600 300.267,127.600 316.000 C 127.600 331.733,127.738 340.000,128.000 340.000 C 128.259 340.000,128.400 344.725,128.400 353.376 C 128.400 361.863,128.546 366.843,128.800 367.000 C 129.020 367.136,129.200 367.680,129.200 368.210 C 129.200 368.762,129.540 369.354,130.000 369.600 C 130.440 369.835,130.804 370.337,130.809 370.714 C 130.814 371.091,131.170 371.850,131.600 372.400 C 132.030 372.950,132.386 373.625,132.391 373.900 C 132.396 374.175,132.580 374.400,132.800 374.400 C 133.020 374.400,133.200 374.661,133.200 374.980 C 133.200 375.298,133.872 376.063,134.694 376.680 C 135.516 377.296,136.683 378.232,137.287 378.759 C 138.893 380.163,144.067 382.877,147.800 384.275 C 148.680 384.605,149.760 385.019,150.200 385.197 C 150.640 385.374,151.630 385.736,152.400 386.000 C 153.170 386.264,154.160 386.629,154.600 386.810 C 155.040 386.991,155.940 387.251,156.600 387.388 C 157.260 387.524,158.520 387.808,159.400 388.019 C 160.985 388.398,163.723 388.958,167.200 389.613 C 168.190 389.800,169.945 389.963,171.100 389.976 C 172.255 389.989,173.200 390.180,173.200 390.400 C 173.200 390.641,174.867 390.800,177.400 390.800 C 179.933 390.800,181.600 390.959,181.600 391.200 C 181.600 391.460,186.933 391.600,196.800 391.600 C 206.667 391.600,212.000 391.460,212.000 391.200 C 212.000 390.959,213.659 390.800,216.176 390.800 C 218.529 390.800,220.461 390.625,220.600 390.400 C 220.749 390.158,223.885 389.983,228.524 389.958 C 238.247 389.904,245.452 389.306,252.000 388.010 C 253.210 387.770,255.010 387.437,256.000 387.269 C 256.990 387.102,258.413 386.657,259.161 386.282 C 259.910 385.907,260.684 385.600,260.881 385.600 C 261.623 385.600,266.469 382.978,268.040 381.727 C 270.987 379.381,275.600 373.834,275.600 372.638 C 275.600 372.287,275.780 372.000,276.000 372.000 C 276.565 372.000,276.552 274.312,275.987 273.747 C 275.735 273.495,275.618 271.470,275.687 268.572 L 275.800 263.810 277.773 262.874 C 280.286 261.682,284.254 258.575,284.978 257.233 C 285.284 256.665,285.834 255.570,286.201 254.800 C 286.567 254.030,287.032 253.087,287.234 252.705 C 287.435 252.323,287.599 251.783,287.598 251.505 C 287.596 251.227,287.353 251.450,287.056 252.000 C 286.760 252.550,286.048 253.870,285.473 254.933 C 284.105 257.465,279.728 261.600,278.416 261.600 C 278.187 261.600,278.000 261.760,278.000 261.957 C 278.000 262.389,276.368 262.842,274.200 263.012 C 273.320 263.081,271.003 263.265,269.051 263.421 C 263.615 263.856,256.269 261.604,254.546 258.973 C 253.773 257.794,253.753 249.687,254.430 210.581 C 254.961 179.853,254.809 178.343,250.513 171.737 C 248.768 169.054,248.898 169.078,243.301 170.424 C 195.265 181.972,133.600 173.735,133.600 155.770 C 133.600 154.630,133.311 153.006,132.958 152.161 C 131.484 148.633,132.950 145.620,137.416 143.000 C 142.008 140.306,143.995 139.643,154.900 137.163 C 157.045 136.676,158.800 136.127,158.800 135.945 C 158.800 135.526,155.391 133.808,153.800 133.426 C 153.140 133.267,152.254 132.837,151.832 132.469 C 151.111 131.841,151.080 131.843,151.324 132.512 M277.200 229.781 C 277.200 229.881,277.834 230.263,278.608 230.631 C 280.355 231.460,284.997 236.414,285.850 238.358 C 287.903 243.042,288.118 243.910,287.876 246.513 C 287.749 247.881,287.520 249.450,287.368 250.000 C 287.136 250.839,287.180 250.917,287.643 250.482 C 289.209 249.015,288.377 241.975,286.098 237.400 C 284.476 234.144,277.200 227.914,277.200 229.781 " stroke="none" fill="#040404" fill-rule="evenodd"></path><path id="path3" d="M192.487 17.500 C 191.530 18.435,191.514 18.481,192.381 17.806 C 194.088 16.476,194.169 16.400,193.886 16.400 C 193.736 16.400,193.106 16.895,192.487 17.500 M234.344 19.176 C 234.864 19.629,235.479 20.000,235.711 20.000 C 236.203 20.000,236.179 19.980,234.600 19.055 L 233.400 18.353 234.344 19.176 M239.567 22.545 C 240.100 23.201,241.600 24.193,241.600 23.889 C 241.600 23.813,241.015 23.322,240.300 22.799 C 239.496 22.210,239.216 22.113,239.567 22.545 M242.837 24.987 C 243.367 25.641,244.504 26.811,245.365 27.587 C 246.226 28.364,247.621 29.871,248.465 30.936 C 249.309 32.001,250.000 32.677,250.000 32.439 C 250.000 32.201,248.172 30.160,245.937 27.903 C 243.703 25.646,242.308 24.334,242.837 24.987 M254.428 43.876 C 254.518 44.915,255.144 45.796,255.172 44.924 C 255.187 44.442,255.020 43.936,254.800 43.800 C 254.580 43.664,254.413 43.698,254.428 43.876 M190.364 53.627 C 189.574 54.492,189.060 55.200,189.222 55.200 C 189.527 55.200,192.000 52.517,192.000 52.186 C 192.000 51.869,191.843 52.007,190.364 53.627 M174.176 64.187 C 173.749 64.510,173.580 64.775,173.800 64.775 C 174.020 64.775,174.549 64.510,174.976 64.187 C 175.404 63.864,175.573 63.600,175.353 63.600 C 175.133 63.600,174.604 63.864,174.176 64.187 M160.576 72.987 C 160.149 73.310,159.980 73.575,160.200 73.575 C 160.420 73.575,160.949 73.310,161.376 72.987 C 161.804 72.664,161.973 72.400,161.753 72.400 C 161.533 72.400,161.004 72.664,160.576 72.987 M244.800 95.096 C 244.800 95.363,245.159 96.170,245.599 96.890 C 246.634 98.588,246.635 98.035,245.600 96.104 C 245.160 95.284,244.800 94.830,244.800 95.096 M138.652 101.300 C 138.304 102.597,138.344 108.800,138.700 108.798 C 138.865 108.797,139.003 106.907,139.007 104.598 C 139.015 100.038,139.008 99.971,138.652 101.300 M253.628 112.676 C 253.718 113.715,254.344 114.596,254.372 113.724 C 254.387 113.242,254.220 112.736,254.000 112.600 C 253.780 112.464,253.613 112.498,253.628 112.676 M143.209 121.446 C 143.221 121.913,144.780 123.900,144.791 123.463 C 144.796 123.278,144.440 122.669,144.000 122.109 C 143.560 121.550,143.204 121.251,143.209 121.446 M253.246 125.867 C 253.221 126.124,253.084 126.664,252.941 127.067 C 252.740 127.636,252.794 127.697,253.179 127.342 C 253.452 127.091,253.589 126.551,253.484 126.142 C 253.379 125.734,253.272 125.610,253.246 125.867 M249.500 132.229 C 248.895 132.557,248.400 133.069,248.400 133.366 C 248.400 136.364,228.298 147.054,221.293 147.781 C 219.914 147.924,217.614 148.482,216.184 149.021 C 212.741 150.317,210.451 150.265,204.866 148.764 C 199.796 147.402,199.370 147.409,194.255 148.939 C 185.248 151.635,182.298 150.422,173.705 140.495 C 171.636 138.104,171.576 138.069,168.705 137.620 C 163.487 136.804,161.846 136.348,158.600 134.811 C 156.840 133.978,154.680 133.194,153.800 133.069 L 152.200 132.843 153.822 133.373 C 155.986 134.081,158.800 135.536,158.800 135.946 C 158.800 136.128,157.045 136.676,154.900 137.163 C 143.995 139.643,142.008 140.306,137.416 143.000 C 132.950 145.620,131.484 148.633,132.958 152.161 C 133.311 153.006,133.600 154.630,133.600 155.770 C 133.600 173.735,195.265 181.972,243.301 170.424 C 248.898 169.078,248.768 169.054,250.513 171.737 C 254.809 178.343,254.961 179.853,254.430 210.581 C 253.753 249.687,253.773 257.794,254.546 258.973 C 256.269 261.604,263.615 263.856,269.051 263.421 C 271.003 263.265,273.320 263.081,274.200 263.012 C 276.368 262.842,278.000 262.389,278.000 261.957 C 278.000 261.760,278.187 261.600,278.416 261.600 C 279.610 261.600,284.947 256.644,285.430 255.086 C 285.581 254.599,286.048 253.712,286.468 253.116 C 287.239 252.022,287.335 251.569,287.832 246.713 C 288.123 243.876,287.951 243.152,285.850 238.358 C 284.168 234.521,278.079 229.521,275.187 229.602 C 269.341 229.766,269.523 230.358,269.778 212.000 C 269.899 203.310,270.110 187.052,270.249 175.871 C 270.497 155.798,270.511 155.529,271.367 154.471 C 273.473 151.870,273.766 150.849,273.637 146.562 C 273.603 145.412,270.840 142.000,269.942 142.000 C 269.778 142.000,268.567 141.369,267.251 140.598 C 264.321 138.881,256.795 135.904,252.432 134.736 C 250.655 134.260,249.203 133.765,249.206 133.636 C 249.218 133.185,249.805 132.529,250.600 132.078 C 251.799 131.398,250.772 131.539,249.500 132.229 M166.678 142.165 C 169.283 144.406,168.137 147.778,164.119 149.698 C 159.883 151.721,160.360 152.802,166.371 154.801 C 188.553 162.180,238.684 157.597,243.019 147.794 C 245.180 142.908,250.800 144.063,250.800 149.393 C 250.800 154.828,243.621 159.707,231.400 162.577 C 225.050 164.069,223.841 164.304,219.800 164.837 C 183.827 169.577,152.481 163.596,152.409 151.979 C 152.372 146.088,162.856 138.878,166.678 142.165 M280.126 242.047 C 283.516 243.781,283.324 250.847,279.779 254.770 C 275.910 259.053,268.400 259.273,268.400 255.104 C 268.400 253.255,269.115 252.393,271.534 251.328 C 274.861 249.863,275.198 249.452,275.214 246.838 C 275.239 242.906,277.498 240.703,280.126 242.047 " stroke="none" fill="#2c2c2c" fill-rule="evenodd"></path><path id="path4" d="M215.753 42.123 C 214.152 43.364,213.255 44.504,211.498 47.534 C 210.540 49.185,210.424 52.864,211.211 56.651 C 212.127 61.065,210.386 64.130,205.315 67.031 C 200.601 69.727,196.485 74.955,194.790 80.400 C 193.989 82.973,190.858 88.257,188.915 90.313 C 188.649 90.596,187.411 91.363,186.164 92.019 C 174.310 98.254,167.075 111.878,170.773 121.000 C 176.120 134.189,188.402 141.514,201.600 139.383 C 220.957 136.259,224.926 132.391,226.620 115.000 C 227.418 106.797,227.285 105.422,225.171 100.011 C 224.266 97.695,223.388 95.440,223.221 95.000 C 223.054 94.560,222.531 93.340,222.059 92.289 C 220.891 89.691,220.952 89.230,222.843 86.384 C 227.184 79.848,228.477 73.378,226.959 65.800 C 226.606 64.040,226.169 61.876,225.988 60.992 C 225.807 60.107,225.005 57.317,224.207 54.792 C 223.409 52.266,222.419 49.112,222.008 47.782 C 221.072 44.757,218.796 40.811,218.000 40.831 C 217.670 40.839,216.659 41.421,215.753 42.123 M219.100 43.399 C 219.595 44.164,220.000 44.883,220.000 44.999 C 220.000 45.114,220.343 45.972,220.763 46.904 C 221.489 48.516,221.624 48.976,222.211 51.800 C 222.450 52.952,222.597 53.384,223.501 55.600 C 223.725 56.150,224.122 57.410,224.382 58.400 C 224.641 59.390,225.022 60.753,225.227 61.428 C 225.432 62.104,225.600 63.128,225.600 63.705 C 225.600 64.281,225.780 64.864,226.000 65.000 C 226.238 65.147,226.400 67.663,226.400 71.200 C 226.400 74.737,226.238 77.253,226.000 77.400 C 225.780 77.536,225.600 78.166,225.600 78.800 C 225.600 79.434,225.420 80.064,225.200 80.200 C 224.980 80.336,224.800 80.797,224.800 81.224 C 224.800 81.651,224.620 82.000,224.400 82.000 C 224.180 82.000,224.000 82.360,224.000 82.800 C 224.000 83.240,223.820 83.600,223.600 83.600 C 223.380 83.600,223.200 83.809,223.200 84.064 C 223.200 84.319,222.480 85.481,221.600 86.646 C 219.833 88.987,219.747 89.349,220.556 91.039 C 221.395 92.789,222.250 94.838,222.793 96.400 C 223.603 98.726,223.850 99.327,224.743 101.138 C 225.214 102.094,225.600 103.183,225.600 103.558 C 225.600 103.933,225.798 104.438,226.040 104.680 C 226.688 105.328,225.726 119.202,224.825 122.200 C 224.561 123.080,224.245 124.208,224.124 124.706 C 224.003 125.204,223.746 125.710,223.552 125.830 C 223.359 125.949,223.200 126.397,223.200 126.824 C 223.200 127.251,223.020 127.600,222.800 127.600 C 222.580 127.600,222.400 127.960,222.400 128.400 C 222.400 128.840,222.242 129.200,222.049 129.200 C 221.855 129.200,221.479 129.726,221.213 130.368 C 219.484 134.544,213.307 136.886,198.947 138.812 C 194.134 139.458,188.805 138.372,185.025 135.975 C 184.006 135.329,183.091 134.800,182.991 134.800 C 180.781 134.800,171.200 122.434,171.200 119.583 C 171.200 119.178,171.020 118.736,170.800 118.600 C 170.580 118.464,170.400 116.844,170.400 115.000 C 170.400 113.156,170.580 111.536,170.800 111.400 C 171.020 111.264,171.200 110.713,171.200 110.176 C 171.200 109.639,171.380 109.200,171.600 109.200 C 171.820 109.200,172.000 108.935,172.000 108.612 C 172.000 105.463,183.835 92.800,186.778 92.800 C 187.010 92.800,187.200 92.620,187.200 92.400 C 187.200 92.180,187.443 92.000,187.739 92.000 C 188.379 92.000,192.400 87.641,192.400 86.947 C 192.400 86.683,192.536 86.407,192.702 86.333 C 192.868 86.260,193.607 84.940,194.344 83.400 C 195.081 81.860,195.845 80.287,196.042 79.905 C 196.239 79.523,196.400 78.869,196.400 78.451 C 196.400 75.947,201.274 70.436,205.941 67.662 C 208.744 65.996,211.200 63.637,211.200 62.611 C 211.200 62.275,211.380 62.000,211.600 62.000 C 211.838 62.000,212.000 60.475,212.000 58.224 C 212.000 56.137,211.821 54.337,211.600 54.200 C 211.380 54.064,211.200 52.793,211.200 51.376 C 211.200 49.925,211.375 48.800,211.600 48.800 C 211.820 48.800,212.000 48.440,212.000 48.000 C 212.000 47.560,212.180 47.200,212.400 47.200 C 212.620 47.200,212.800 46.941,212.800 46.625 C 212.800 45.865,216.809 41.999,217.590 42.005 C 217.926 42.008,218.605 42.635,219.100 43.399 " stroke="none" fill="#6c6c6c" fill-rule="evenodd"></path></g></svg>